<svg version="1.1" id="Capa_1" xmlns="http://www.w3.org/2000/svg" x="0" y="0" viewBox="0 0 512 512" xml:space="preserve"><linearGradient id="SVGID_1_" gradientUnits="userSpaceOnUse" x1="256" y1="0" x2="256" y2="512" gradientTransform="matrix(1 0 0 -1 0 512)"><stop offset="0" stop-color="#C8D7FF"/><stop offset="1" stop-color="#F3F5FF"/></linearGradient><circle cx="256" cy="256" r="256" fill="url(#SVGID_1_)"/><linearGradient id="SVGID_2_" gradientUnits="userSpaceOnUse" x1="256" y1="105" x2="256" y2="406.999" gradientTransform="matrix(1 0 0 -1 0 512)"><stop offset="0" stop-color="#ADBFF3"/><stop offset="1" stop-color="#7185BD"/></linearGradient><path d="M167.2 158.3H256c4.9 0 8.9-4 8.9-8.9v-35.5c0-4.9-4-8.9-8.9-8.9h-88.8c-4.9 0-8.9 4-8.9 8.9v35.5c0 4.9 4 8.9 8.9 8.9zm-26.7 133.2h17.8v-17.8h-17.8v17.8zm0 71.1h17.8v-17.8h-17.8v17.8zm0-142.1h17.8v-17.8h-17.8v17.8zm80 168.7c-14.7 0-26.6-12-26.6-26.6 0-23.3 9.1-45.2 25.6-61.7 1.8-1.8 97.3-97.4 98.8-99v-52.6c0-14.7-12-26.6-26.6-26.6h-8.9v26.6c0 14.7-12 26.6-26.6 26.6h-88.8c-14.7 0-26.6-12-26.6-26.6v-26.6h-8.9c-14.7 0-26.6 12-26.6 26.6V398c0 4.9 4 8.9 8.9 8.9h195.4c4.9 0 8.9-4 8.9-8.9v-70.5l-36.1 36c-16.8 16.7-38.7 25.7-61.9 25.7zm-17.8-204.3H256c4.9 0 8.9 4 8.9 8.9s-4 8.9-8.9 8.9h-53.3c-4.9 0-8.9-4-8.9-8.9s4-8.9 8.9-8.9zm0 35.6h35.5c4.9 0 8.9 4 8.9 8.9s-4 8.9-8.9 8.9h-35.5c-4.9 0-8.9-4-8.9-8.9s4-8.9 8.9-8.9zm0 35.5h17.8c4.9 0 8.9 4 8.9 8.9s-4 8.9-8.9 8.9h-17.8c-4.9 0-8.9-4-8.9-8.9s4-8.9 8.9-8.9zm-26.6 115.5c0 4.9-4 8.9-8.9 8.9h-35.5c-4.9 0-8.9-4-8.9-8.9V336c0-4.9 4-8.9 8.9-8.9h35.5c4.9 0 8.9 4 8.9 8.9v35.5zm0-71.1c0 4.9-4 8.9-8.9 8.9h-35.5c-4.9 0-8.9-4-8.9-8.9v-35.5c0-4.9 4-8.9 8.9-8.9h35.5c4.9 0 8.9 4 8.9 8.9v35.5zm0-71c0 4.9-4 8.9-8.9 8.9h-35.5c-4.9 0-8.9-4-8.9-8.9v-35.5c0-4.9 4-8.9 8.9-8.9h35.5c4.9 0 8.9 4 8.9 8.9v35.5zm55.9 84.1c-13.1 13.1-20.4 30.6-20.4 49.1 0 4.9 4 8.9 8.9 8.9 18.5 0 36-7.2 49.1-20.4l87.8-87.7-37.8-37.8c-83.8 84.2-66.6 66.8-87.6 87.9zm148.4-137.4c-7.1 0-14 2.9-19.1 7.9l-29.1 29.1 37.8 37.8 29.6-29.6c4.7-5 7.4-11.7 7.4-18.5 0-14.8-12-26.7-26.6-26.7z" fill="url(#SVGID_2_)"/></svg>