<svg version="1.1" id="Capa_1" xmlns="http://www.w3.org/2000/svg" x="0" y="0" viewBox="0 0 512 512" xml:space="preserve"><style>.st1{fill:url(#SVGID_00000109736875521697799370000015797580338425393795_)}</style><linearGradient id="SVGID_1_" gradientUnits="userSpaceOnUse" x1="256" y1="260" x2="256" y2="-252" gradientTransform="translate(0 252)"><stop offset="0" stop-color="#C8D7FF"/><stop offset="1" stop-color="#F3F5FF"/></linearGradient><circle cx="256" cy="256" r="256" fill="url(#SVGID_1_)"/><linearGradient id="SVGID_00000175304637734968108390000017585492562449745057_" gradientUnits="userSpaceOnUse" x1="256" y1="155" x2="256" y2="-147" gradientTransform="translate(0 252)"><stop offset="0" stop-color="#ADBFF3"/><stop offset="1" stop-color="#7185BD"/></linearGradient><path d="M229.4 229.4h-53.3v35.5h53.3v-35.5zm151-124.4H131.6c-14.7 0-26.6 12-26.6 26.6V176h302v-44.4c0-14.6-12-26.6-26.6-26.6zm-213.2 44.4c-4.9 0-8.9-4-8.9-8.9s4-8.9 8.9-8.9 8.9 4 8.9 8.9-4 8.9-8.9 8.9zm35.5 0c-4.9 0-8.9-4-8.9-8.9s4-8.9 8.9-8.9 8.9 4 8.9 8.9-4 8.9-8.9 8.9zm35.5 0c-4.9 0-8.9-4-8.9-8.9s4-8.9 8.9-8.9 8.9 4 8.9 8.9-4 8.9-8.9 8.9zm97.7 168.8h-53.3v35.5h53.3v-35.5zM105 380.4c0 14.7 12 26.6 26.6 26.6h248.7c14.7 0 26.6-12 26.6-26.6V193.8H105v186.6zm168.8-151h71.1c4.9 0 8.9 4 8.9 8.9s-4 8.9-8.9 8.9h-71.1c-4.9 0-8.9-4-8.9-8.9s4-8.9 8.9-8.9zm0 35.5h71.1c4.9 0 8.9 4 8.9 8.9s-4 8.9-8.9 8.9h-71.1c-4.9 0-8.9-4-8.9-8.9s4-8.9 8.9-8.9zm-8.9 44.4c0-4.9 4-8.9 8.9-8.9h71.1c4.9 0 8.9 4 8.9 8.9v53.3c0 4.9-4 8.9-8.9 8.9h-71.1c-4.9 0-8.9-4-8.9-8.9v-53.3zm-106.6-88.8c0-4.9 4-8.9 8.9-8.9h71.1c4.9 0 8.9 4 8.9 8.9v53.3c0 4.9-4 8.9-8.9 8.9h-71.1c-4.9 0-8.9-4-8.9-8.9v-53.3zm8.9 97.7h71.1c4.9 0 8.9 4 8.9 8.9s-4 8.9-8.9 8.9h-71.1c-4.9 0-8.9-4-8.9-8.9 0-5 4-8.9 8.9-8.9zm0 35.5h71.1c4.9 0 8.9 4 8.9 8.9s-4 8.9-8.9 8.9h-71.1c-4.9 0-8.9-4-8.9-8.9s4-8.9 8.9-8.9z" fill="url(#SVGID_00000175304637734968108390000017585492562449745057_)"/></svg>