<svg version="1.1" id="Capa_1" xmlns="http://www.w3.org/2000/svg" x="0" y="0" viewBox="0 0 512 512" xml:space="preserve"><linearGradient id="SVGID_1_" gradientUnits="userSpaceOnUse" x1="256" y1="512" x2="256" y2="0" gradientTransform="matrix(1 0 0 -1 0 512)"><stop offset="0" stop-color="#C8D7FF"/><stop offset="1" stop-color="#F3F5FF"/></linearGradient><path d="M256 0C114.6 0 0 114.6 0 256s114.6 256 256 256 256-114.6 256-256S397.4 0 256 0zm38.7 361.2c-1.9-5.5-4.5-10.6-7.9-15.3 6.8.9 13.7 1.4 20.6 1.4-2.4 6-7 10.9-12.7 13.9zm14.6-23.9c-12.2 0-24.2-1.3-33.7-3.7-.1 0-.2 0-.4-.1-4.7-3.7-9.9-6.7-15.5-8.8l-.3-13.9c3.4 1.7 7 3.1 10.7 4.1 10.7 3.1 24.6 4.8 39.2 4.8v17.6zm0-27.3c-13.7 0-26.7-1.6-36.5-4.5-10.6-3.1-13.6-6.4-13.8-7.5v-.1c0-1 2.3-4.1 12.8-7.3 10-3.1 23.3-4.8 37.6-4.8V310h-.1z" fill="url(#SVGID_1_)"/><linearGradient id="SVGID_2_" gradientUnits="userSpaceOnUse" x1="297.1" y1="166.14" x2="297.1" y2="150.84" gradientTransform="matrix(1 0 0 -1 0 512)"><stop offset="0" stop-color="#C8D7FF"/><stop offset="1" stop-color="#F3F5FF"/></linearGradient><path d="M307.4 347.3c-2.4 6-7 11-12.7 13.9-1.9-5.5-4.5-10.6-7.9-15.3 6.8.8 13.7 1.3 20.6 1.4z" fill="url(#SVGID_2_)"/><linearGradient id="SVGID_3_" gradientUnits="userSpaceOnUse" x1="284.35" y1="201.16" x2="284.35" y2="174.66" gradientTransform="matrix(1 0 0 -1 0 512)"><stop offset="0" stop-color="#C8D7FF"/><stop offset="1" stop-color="#F3F5FF"/></linearGradient><path d="M309.3 319.7v17.6c-12.2 0-24.2-1.3-33.7-3.7-.1 0-.2 0-.4-.1-4.7-3.7-9.9-6.7-15.5-8.8l-.3-13.9c3.4 1.7 7 3.1 10.7 4.1 10.7 3.2 24.6 4.8 39.2 4.8z" fill="url(#SVGID_3_)"/><linearGradient id="SVGID_4_" gradientUnits="userSpaceOnUse" x1="284.15" y1="226.2" x2="284.15" y2="202.06" gradientTransform="matrix(1 0 0 -1 0 512)"><stop offset="0" stop-color="#C8D7FF"/><stop offset="1" stop-color="#F3F5FF"/></linearGradient><path d="M309.3 285.8V310c-13.7 0-26.6-1.6-36.5-4.5-10.6-3.1-13.6-6.4-13.8-7.5v-.1c0-1 2.3-4.1 12.8-7.3 9.8-3.1 23.2-4.8 37.5-4.8z" fill="url(#SVGID_4_)"/><linearGradient id="SVGID_5_" gradientUnits="userSpaceOnUse" x1="193.8" y1="-87.9" x2="193.8" y2="-389.9" gradientTransform="translate(0 452)"><stop offset="0" stop-color="#ADBFF3"/><stop offset="1" stop-color="#7185BD"/></linearGradient><path d="M271.7 290.6c10-3.1 23.3-4.8 37.6-4.8V124.2c0-14.8-11.9-26.6-26.6-26.6h-45.3c.5 2.8.9 5.9.9 8.9V142c0 14.7-11.9 26.7-26.6 26.7-14.8 0-26.7-11.9-26.7-26.7 0-5 3.9-8.9 8.9-8.9s8.9 3.9 8.9 8.9 3.9 8.9 8.9 8.9 8.9-3.9 8.9-8.9v-35.5c0-3.2-.5-6-1.6-8.9h-50.1c3.5-10.3 13.5-17.8 25-17.8s21.5 7.5 25 17.8h18.5c-4.1-20.2-22-35.5-43.5-35.5s-39.4 15.3-43.5 35.5H105c-14.7 0-26.7 11.9-26.7 26.6v213.2c0 14.8 11.9 26.7 26.7 26.7h87c2.6-7.5 7.1-14.6 13.4-20.3 9-8.2 20.9-12.8 33.2-12.8 5 0 9.8.7 14.6 2.2 15 4.7 26.8 16.3 32 30.8 3.4-.3 6.6-1.3 9.5-2.7-1.9-5.5-4.5-10.6-7.9-15.3 6.8.9 13.7 1.4 20.6 1.4 1.2-3.1 1.9-6.4 1.9-9.9-12.2 0-24.2-1.3-33.7-3.7-.1 0-.2 0-.4-.1-4.7-3.7-9.9-6.7-15.5-8.8l-.3-13.9c3.4 1.7 7 3.1 10.7 4.1 10.7 3.1 24.6 4.8 39.2 4.8V310c-13.7 0-26.6-1.6-36.5-4.5-10.6-3.1-13.6-6.4-13.8-7.5v-.1c-.1-1 2.2-4.1 12.7-7.3zm-77.9 2.3h-53.3c-4.9 0-8.9-4-8.9-8.9s4-8.9 8.9-8.9h53.3c4.9 0 8.9 4 8.9 8.9s-4 8.9-8.9 8.9zm53.3-35.5H140.5c-4.9 0-8.9-4-8.9-8.9s4-8.9 8.9-8.9h106.6c4.9 0 8.9 4 8.9 8.9s-4 8.9-8.9 8.9zm0-35.5H140.5c-4.9 0-8.9-4-8.9-8.9s4-8.9 8.9-8.9h106.6c4.9 0 8.9 4 8.9 8.9s-4 8.9-8.9 8.9zM238.6 356c-4.6 0-8.3 3.5-8.8 8h17.5c-.3-4.5-4.1-8-8.7-8z" fill="url(#SVGID_5_)"/><linearGradient id="SVGID_6_" gradientUnits="userSpaceOnUse" x1="284.364" y1="101.45" x2="307.264" y2="101.45" gradientTransform="matrix(1 0 0 -1 0 512)"><stop offset="0" stop-color="#ADBFF3"/><stop offset="1" stop-color="#7185BD"/></linearGradient><path d="M307 402.9v-.9c-4.6 0-8.9-.3-13.1-.6-2.3 5.9-5.5 11.4-9.5 16.3 7.6 1.2 15.2 1.9 22.9 2l-.3-16.8z" fill="url(#SVGID_6_)"/><linearGradient id="SVGID_7_" gradientUnits="userSpaceOnUse" x1="189.299" y1="119.247" x2="287.819" y2="119.247" gradientTransform="matrix(1 0 0 -1 0 512)"><stop offset="0" stop-color="#ADBFF3"/><stop offset="1" stop-color="#7185BD"/></linearGradient><path d="M286.9 370.2c-.5-2.2-1-4.3-1.8-6.3-.8.1-1.7.1-2.5.1h-25.4v.8c0 2.7-2.2 4.9-5 4.9-2.7 0-5-2.2-5-4.9v-.8c-.4-4.5-4.2-8-8.8-8s-8.3 3.5-8.8 8v.8c0 4.8 4 8.8 8.8 8.8 8.4 0 15.7 5.5 18 13.6 2.8 10-3 20.2-13 23v4.4c0 2.7-2.2 4.9-4.9 4.9s-5-2.2-5-4.9v-4.3c-8.2-2.2-13.8-9.6-13.9-18.1 0-2.7 2.2-4.9 5-4.9 2.7 0 4.9 2.2 4.9 4.9 0 4.9 4 8.8 8.8 8.8 4.9 0 8.8-3.9 8.8-8.8 0-4.8-4-8.8-8.8-8.8-8.5 0-15.8-5.7-18-13.8-.5-1.8-.7-3.7-.6-5.5H192c-5.7 16.5-2.4 35.5 10.1 49.3 18.3 20.1 49.5 21.6 69.6 3.3 10.3-9.3 16.2-22.6 16.1-36.5.1-3.4-.2-6.7-.9-10z" fill="url(#SVGID_7_)"/><linearGradient id="SVGID_8_" gradientUnits="userSpaceOnUse" x1="192" y1="164.55" x2="285.2" y2="164.55" gradientTransform="matrix(1 0 0 -1 0 512)"><stop offset="0" stop-color="#ADBFF3"/><stop offset="1" stop-color="#7185BD"/></linearGradient><path d="M285.2 363.9c-.8.1-1.7.1-2.5.1h-25.4c-.3-8-5.8-15-13.6-17.2v-2.2c0-2.7-2.2-4.9-4.9-4.9s-5 2.2-5 4.9v2.1c-8.1 2.2-13.5 9.4-13.9 17.3H192c2.6-7.5 7.1-14.6 13.4-20.3 9-8.2 20.9-12.8 33.2-12.8 5 0 9.8.7 14.6 2.2 15 4.7 26.8 16.2 32 30.8z" fill="url(#SVGID_8_)"/><linearGradient id="SVGID_9_" gradientUnits="userSpaceOnUse" x1="296.681" y1="128.8" x2="306.821" y2="128.8" gradientTransform="matrix(1 0 0 -1 0 512)"><stop offset="0" stop-color="#ADBFF3"/><stop offset="1" stop-color="#7185BD"/></linearGradient><path d="m306.8 392.1-.3-17.5c-3.1 0-6.1-.1-9-.3.1 2 .2 3.9.2 5.8 0 3.9-.4 7.8-1.1 11.6 3.3.3 6.8.4 10.2.4z" fill="url(#SVGID_9_)"/><linearGradient id="SVGID_10_" gradientUnits="userSpaceOnUse" x1="309.3" y1="188.25" x2="361" y2="188.25" gradientTransform="matrix(1 0 0 -1 0 512)"><stop offset="0" stop-color="#ADBFF3"/><stop offset="1" stop-color="#7185BD"/></linearGradient><path d="M361 310.2v13c-.5.7-.5 1.3-.5 2s-2.4 4.1-13.1 7.3c-10 3-23.9 4.8-38.1 4.8v-17.6c15.2 0 29.8-1.8 41-5.2 3.7-1 7.3-2.5 10.7-4.3z" fill="url(#SVGID_10_)"/><linearGradient id="SVGID_11_" gradientUnits="userSpaceOnUse" x1="309.29" y1="214.05" x2="360.49" y2="214.05" gradientTransform="matrix(1 0 0 -1 0 512)"><stop offset="0" stop-color="#ADBFF3"/><stop offset="1" stop-color="#7185BD"/></linearGradient><path d="M360.4 297.9c0 .7-2.4 4.1-13.2 7.3-10 3-23.9 4.8-38 4.8v-24.1c14.1 0 28 1.7 38 4.8 10.9 3.2 13.2 6.5 13.2 7.2z" fill="url(#SVGID_11_)"/><linearGradient id="SVGID_12_" gradientUnits="userSpaceOnUse" x1="317.1" y1="85.8" x2="417.8" y2="85.8" gradientTransform="matrix(1 0 0 -1 0 512)"><stop offset="0" stop-color="#ADBFF3"/><stop offset="1" stop-color="#7185BD"/></linearGradient><path d="M417.8 427.5v-14.8c-3.3 1.7-6.8 3.1-10.4 4.2-11.1 3.4-25.6 5.2-40.9 5.2-13.6 0-26.8-1.5-37.1-4.3-4.3-1.1-8.4-2.6-12.3-4.5l.2 14.3v.1c0 .7 2.2 4.1 12.6 7.3 9.9 3 23.2 4.7 37.5 4.7 14.2 0 27.7-1.7 37.6-4.8 10.5-3.3 12.8-6.7 12.8-7.4z" fill="url(#SVGID_12_)"/><linearGradient id="SVGID_13_" gradientUnits="userSpaceOnUse" x1="294.6" y1="160.7" x2="360.83" y2="160.7" gradientTransform="matrix(1 0 0 -1 0 512)"><stop offset="0" stop-color="#ADBFF3"/><stop offset="1" stop-color="#7185BD"/></linearGradient><path d="M360.9 337.8v13c-21.2.6-43 5-51.2 14h-.5c-4.8 0-9.3-.2-13.6-.5-.3-1-.6-2.1-1-3.1 5.8-2.9 10.3-7.8 12.7-13.9h1.8c15.3 0 29.9-1.8 41-5.2 3.8-1.1 7.4-2.5 10.8-4.3z" fill="url(#SVGID_13_)"/><linearGradient id="SVGID_14_" gradientUnits="userSpaceOnUse" x1="316.6" y1="113.25" x2="417.854" y2="113.25" gradientTransform="matrix(1 0 0 -1 0 512)"><stop offset="0" stop-color="#ADBFF3"/><stop offset="1" stop-color="#7185BD"/></linearGradient><path d="M407 389.5c-11 3.3-25.4 5-40.4 5-14.6 0-28.5-1.7-39.2-4.8-3.7-1-7.3-2.4-10.8-4.2l.2 11.4v4.2c3.9 4.8 22.3 11 49.7 11 14.3 0 27.8-1.7 37.9-4.7 10.7-3.3 13-6.6 13-7.3 0-.5.3-1.1.3-1.6v-13.1c-3.3 1.6-6.9 3.1-10.7 4.1z" fill="url(#SVGID_14_)"/><linearGradient id="SVGID_15_" gradientUnits="userSpaceOnUse" x1="316.3" y1="139.2" x2="417.9" y2="139.2" gradientTransform="matrix(1 0 0 -1 0 512)"><stop offset="0" stop-color="#ADBFF3"/><stop offset="1" stop-color="#7185BD"/></linearGradient><path d="M404.7 365.5c-10.1-3.1-23.9-4.7-38.1-4.7h-.8c-13.2 0-25.7 1.5-35.3 4.2-10.2 2.9-13.8 6.1-14.2 7.5v.2l.1.2c.3 1 3.2 4.4 13.9 7.5 9.8 2.8 22.8 4.4 36.5 4.4 14.1 0 27.5-1.6 37.6-4.6 11-3.3 13.5-6.7 13.5-7.4-.2-.9-2.7-4.1-13.2-7.3z" fill="url(#SVGID_15_)"/></svg>