<svg version="1.1" id="Isolation_Mode" xmlns="http://www.w3.org/2000/svg" x="0" y="0" viewBox="0 0 1385 401.4" xml:space="preserve"><style>.st1{fill:#0f3779}</style><path d="M442.9 196.1c-25.9-17.7-38.8-42.7-38.8-75.1V0H493v119.1c0 34.9 19.9 52.4 59.7 52.4 39.5 0 59.3-17.5 59.3-52.4V0h87.6v121c0 32.4-13 57.5-38.8 75.1-25.9 17.7-62.2 26.5-108.9 26.5-46.8 0-83.1-8.8-109-26.5zm354.6 20.1c-24-4.3-43.4-10-58.4-17.1l29.2-44.7c14.1 6.3 30.4 11.4 49 15.3 18.6 3.9 36.8 5.8 54.8 5.8 34.1 0 51.2-5.8 51.2-17.4 0-6.1-4.9-10.7-14.6-13.6-9.7-3-25.4-6.1-46.9-9.3-23.7-3.5-43.4-7.2-59.3-11.2-15.9-4-29.5-10.3-40.9-19.1-11.4-8.8-17.1-20.6-17.1-35.5 0-13 5.2-24.8 15.7-35.3 10.5-10.5 26.1-18.8 46.9-24.9C827.9 3.1 853.5 0 883.7 0c20.7 0 41 1.6 61.1 4.7 20.1 3.2 37.7 7.8 53 13.9l-27.4 45c-29.9-11-59-16.5-87.1-16.5-17.7 0-30.5 1.8-38.6 5.4-8.1 3.6-12.1 8.2-12.1 13.9 0 5.7 4.8 10 14.4 12.8 9.6 2.9 25 5.8 46.3 8.9 24 3.5 43.8 7.2 59.5 11.2 15.7 4 29.3 10.3 40.9 19 11.5 8.7 17.3 20.4 17.3 35.3 0 12.8-5.2 24.5-15.7 34.9-10.5 10.4-26.2 18.7-47.2 24.9-21 6.2-46.4 9.3-76.3 9.3-25.7-.1-50.4-2.2-74.3-6.5zm466.1-40.3h-132.9l-24.7 42.4h-90.7L1154.1 0h87.6l139.2 218.4h-92.5l-24.8-42.5zm-26-45.5-40.4-69.9-40.4 69.9h80.8z" fill="#a30221"/><path class="st1" d="M404.3 261h35.6v135.7h-35.6V261zm157.6 40.5c7.4 7.8 11.1 19.4 11.1 35.1v60.1h-34.2v-54.1c0-14.3-5.3-21.5-16-21.5-5.9 0-10.6 2.1-14.1 6.2s-5.3 10.3-5.3 18.6v50.8h-34.2v-105h32.6v11.4c3.8-4.3 8.4-7.5 13.7-9.8 5.3-2.3 11-3.4 17.3-3.4 12 0 21.7 3.9 29.1 11.6zm49.2 93.9c-7.9-2-14.3-4.6-19.1-7.8l10.3-25.2c4.4 3 9.7 5.3 15.8 7.1 6.1 1.7 12.2 2.6 18.2 2.6 5.5 0 9.5-.6 11.8-1.8 2.3-1.2 3.5-3 3.5-5.3s-1.4-4-4.2-4.9c-2.8-1-7.3-1.9-13.4-2.8-7.8-1-14.4-2.4-19.9-4.1-5.5-1.7-10.2-4.8-14.1-9.3-4-4.5-5.9-10.9-5.9-19 0-6.7 1.9-12.7 5.6-17.9 3.7-5.2 9.2-9.4 16.3-12.4 7.1-3 15.7-4.6 25.7-4.6 7.1 0 14.1.8 21.1 2.3 7 1.6 12.8 3.7 17.5 6.6l-10.3 25c-8.6-5.2-18-7.8-28.1-7.8-5.4 0-9.4.7-11.9 2s-3.8 3.1-3.8 5.3c0 2.5 1.4 4.2 4.1 5.1 2.8 1 7.3 2 13.7 3 8 1.3 14.7 2.8 20 4.5 5.3 1.7 9.9 4.7 13.8 9.2 3.9 4.5 5.9 10.7 5.9 18.7 0 6.6-1.9 12.5-5.6 17.7-3.7 5.2-9.2 9.3-16.5 12.3-7.3 3-16 4.5-26.2 4.5-8.3 0-16.3-1-24.3-3zm195.2-103.8v105h-32.6v-11.2c-3.6 4.3-7.9 7.5-13 9.7s-10.4 3.3-16 3.3c-12.6 0-22.7-4-30.2-12s-11.3-20-11.3-36v-58.7h34.2v52.7c0 7.9 1.4 13.6 4.1 17.2 2.8 3.6 6.8 5.4 12.1 5.4 5.4 0 9.8-2 13.2-6.1 3.4-4.1 5.1-10.3 5.1-18.7v-50.6h34.4zm73.5 1.9c5.6-2.4 12-3.6 19.2-3.6V323c-3.1-.4-5.7-.6-7.7-.6-7.3 0-13.1 2.1-17.2 6.4-4.1 4.3-6.2 10.8-6.2 19.6v48.3h-34.2v-105h32.6v12.6c3.4-4.9 7.9-8.4 13.5-10.8zm116.6 8.3c8.5 7.9 12.8 20.1 12.8 36.5v58.3h-31.9V383c-4.9 10.2-14.5 15.3-28.8 15.3-7.6 0-14.1-1.4-19.6-4.3-5.5-2.8-9.7-6.7-12.5-11.5-2.8-4.8-4.2-10.4-4.2-16.6 0-9.9 3.5-17.7 10.6-23.2s18-8.2 32.8-8.2H975c-.6-11.1-7.5-16.7-20.7-16.7-4.7 0-9.4.8-14.2 2.4-4.8 1.6-8.9 3.8-12.2 6.7l-11.5-25c5.4-3.9 12-6.9 19.7-9 7.7-2.1 15.5-3.2 23.3-3.2 16.1.2 28.5 4.1 37 12.1zM968.5 372c3-2.1 5.2-5.1 6.5-9.1v-9.1h-14.8c-10 0-14.9 3.6-14.9 10.7 0 3.2 1.1 5.8 3.4 7.8 2.3 1.9 5.4 2.9 9.4 2.9 3.9-.1 7.4-1.1 10.4-3.2zm160.5-70.5c7.4 7.8 11.1 19.4 11.1 35.1v60.1h-34.2v-54.1c0-14.3-5.3-21.5-16-21.5-5.9 0-10.6 2.1-14.1 6.2s-5.3 10.3-5.3 18.6v50.8h-34.2v-105h32.6v11.4c3.8-4.3 8.4-7.5 13.7-9.8 5.3-2.3 11-3.4 17.3-3.4 11.9 0 21.7 3.9 29.1 11.6zm60.2 89.9c-8.5-4.7-15.2-11.1-19.9-19.4-4.7-8.3-7.1-17.6-7.1-28.1s2.4-19.8 7.1-28c4.7-8.2 11.4-14.6 19.9-19.2 8.5-4.6 18.2-6.9 29-6.9 11 0 20.6 2.6 28.6 7.7s13.7 12.2 17.1 21.2l-26.5 14.5c-4.4-9.4-10.9-14.1-19.4-14.1-6.1 0-11.2 2.2-15.2 6.6-4 4.4-6 10.5-6 18.2 0 7.9 2 14.1 6 18.5 4 4.5 9.1 6.7 15.2 6.7 8.5 0 15-4.7 19.4-14.1l26.5 14.5c-3.4 9-9.1 16.1-17.1 21.2-8 5.1-17.6 7.7-28.6 7.7-10.8 0-20.5-2.3-29-7zm191.2-38h-70.9c1.4 5.4 4.2 9.6 8.4 12.5 4.1 2.9 9.3 4.4 15.6 4.4 4.7 0 8.7-.7 12.2-2.1 3.4-1.4 6.9-3.7 10.4-7l18 20.2c-9.5 11.4-23.3 17.1-41.6 17.1-11.4 0-21.4-2.3-30.1-7-8.6-4.7-15.3-11.1-20.1-19.4-4.7-8.3-7.1-17.6-7.1-28.1 0-10.3 2.3-19.6 6.9-27.8 4.6-8.2 11-14.6 19.2-19.3 8.2-4.7 17.3-7 27.5-7 9.7 0 18.5 2.2 26.5 6.5 7.9 4.3 14.2 10.6 18.8 18.8 4.6 8.2 6.9 17.9 6.9 29.2-.1.2-.3 3.2-.6 9zm-64.7-32.5c-3.5 3.2-5.8 7.6-6.8 13.2h40c-1-5.6-3.2-9.9-6.8-13.2-3.5-3.2-8-4.8-13.2-4.8-5.3-.1-9.7 1.6-13.2 4.8zm-1081-151.3H110.2l-11 26.8-1.9 4.6h24c0-.2-.1-.4-.1-.6v-11.6c0-2.2 1.8-4.1 4.1-4.1s4.1 1.8 4.1 4.1v11.6c0 .2 0 .4-.1.6h39.2c0-.2-.1-.4-.1-.6v-11.6c0-2.2 1.8-4.1 4.1-4.1s4.1 1.8 4.1 4.1v11.6c0 .2 0 .4-.1.6h39.2c0-.2-.1-.4-.1-.6v-11.6c0-2.2 1.8-4.1 4.1-4.1s4.1 1.8 4.1 4.1v11.6c0 .2 0 .4-.1.6h24l-1.9-4.6-11.1-26.8z"/><path class="st1" d="M340.9 65.1c-.8-2.4-3.7-4.2-6.1-4.2h-31.2c-2.4 0-5.3 1.8-6.1 4.2-1.1 3.2-1.8 6-2.2 8.6-13.7-26.4-28.9-55.8-28.9-55.8-1.5-4.2-5.1-7.2-9.5-8-28.1-5.1-56.5-7.7-84.5-7.7-27.9 0-56.3 2.6-84.5 7.7-4.4.8-8 3.8-9.5 8 0 0-15.2 29.4-28.9 55.8-.3-2.6-1-5.4-2.2-8.6-.8-2.4-3.7-4.2-6.1-4.2H10c-2.4 0-5.3 1.8-6.1 4.2-3.2 9.2-3.2 14.4 0 23.6.8 2.4 3.7 4.2 6.1 4.2h31.2c0 .4 0 .8.1 1.2-6.6 2-11.4 8.1-11.4 15.3V215c0 4.2 3.4 7.7 7.7 7.7h38.7c4.2 0 7.7-3.4 7.7-7.7v-18.5h6.3l13.4-32.4c.6-1.5 2.1-2.5 3.8-2.5h129.9c1.7 0 3.1 1 3.8 2.5l13.4 32.4h6.3V215c0 4.2 3.4 7.7 7.7 7.7h38.7c4.2 0 7.7-3.4 7.7-7.7V109.4c0-7.2-4.8-13.3-11.4-15.3 0-.4.1-.8.1-1.2h31.2c2.4 0 5.3-1.8 6.1-4.2 3.1-9.1 3-14.4-.1-23.6zM95.7 27s18.6-4.7 76.8-4.7 76.8 4.7 76.8 4.7l27.3 65.9H68.4L95.7 27zM61.8 141.1v-21.7h47l14 21.7h-61zm221.3 0h-61l14-21.7h47v21.7zM42.8 390.5C32 384.4 23.5 375.9 17.3 365 11.1 354.2 8 341.9 8 328.1c0-13.7 3.1-26 9.3-36.9 6.2-10.9 14.7-19.3 25.6-25.4 10.8-6.1 23.1-9.1 36.7-9.1 11.9 0 22.6 2.2 32.2 6.7 9.5 4.5 17.5 10.9 23.8 19.2L112.2 305c-8.4-10.7-18.7-16.1-30.7-16.1-7.1 0-13.4 1.6-18.9 4.9-5.5 3.3-9.8 7.9-12.8 13.8-3 6-4.6 12.8-4.6 20.5 0 7.7 1.5 14.6 4.6 20.5 3 6 7.3 10.6 12.8 13.8 5.5 3.3 11.8 4.9 18.9 4.9 12 0 22.2-5.4 30.7-16.1l23.4 22.4c-6.3 8.4-14.3 14.8-23.8 19.2-9.5 4.4-20.3 6.7-32.2 6.7-13.7.1-25.9-3-36.8-9zm193.8-89.8c8.8 8.1 13.2 20.4 13.2 37v59.1h-32.9v-13.7c-5.1 10.3-15 15.5-29.7 15.5-7.8 0-14.6-1.4-20.3-4.3-5.7-2.9-10-6.8-12.9-11.7-2.9-4.9-4.4-10.5-4.4-16.8 0-10.1 3.7-17.9 11-23.5 7.3-5.6 18.6-8.3 33.8-8.3h20.1c-.6-11.3-7.7-16.9-21.4-16.9-4.8 0-9.7.8-14.7 2.5-5 1.6-9.2 3.9-12.6 6.8L153.9 301c5.6-3.9 12.4-7 20.4-9.1 8-2.2 16-3.2 24.1-3.2 16.7-.1 29.4 4 38.2 12zm-28.8 71.2c3.1-2.1 5.3-5.2 6.7-9.2v-9.2h-15.2c-10.3 0-15.4 3.6-15.4 10.8 0 3.3 1.2 5.9 3.5 7.9 2.4 2 5.6 2.9 9.7 2.9 4-.1 7.6-1.1 10.7-3.2zm117.6-79.6c5.8-2.4 12.4-3.6 19.8-3.6v33.6c-3.2-.4-5.9-.6-8-.6-7.6 0-13.5 2.2-17.8 6.5-4.3 4.3-6.4 10.9-6.4 19.8v48.9h-35.3V290.4h33.6v12.8c3.6-4.9 8.3-8.5 14.1-10.9z"/></svg>